<svg xmlns="http://www.w3.org/2000/svg" width="69.871" height="69.895" viewBox="0 0 69.871 69.895">
  <g id="Group_19840" data-name="Group 19840" transform="translate(-1135.608 -86.953)">
    <g id="Group_19837" data-name="Group 19837" transform="translate(1135.608 86.953)">
      <path id="Path_9494" data-name="Path 9494" d="M1135.655,156.848,1135.608,87l69.826-.045.045,69.85Zm1.755-68.05.044,66.247,66.222-.043-.043-66.247Z" transform="translate(-1135.608 -86.953)" fill="#fff"/>
    </g>
    <g id="Group_19839" data-name="Group 19839" transform="translate(1142.028 100.783)">
      <path id="Path_9495" data-name="Path 9495" d="M1175.4,208.894V172.17l7.622,4.972v16.943l6.69-6.74h8.764l-6.845,6.948,6.765,14.6h-8.506l-4.275-8.222-2.54,2.178v6.044Z" transform="translate(-1175.221 -171.865)" fill="#fff"/>
      <path id="Path_9496" data-name="Path 9496" d="M1328.712,170.755v36.913h7.83V194.714a2.547,2.547,0,0,1,2.748-2.386c2.334,0,2.49,2.49,2.49,2.49v12.85h7.935v-12.85c0-8.141-6.483-11.771-13.173-6.9V175.711Z" transform="translate(-1303.101 -170.684)" fill="#fff"/>
      <path id="Path_9497" data-name="Path 9497" d="M1469.561,207.365V170.329l7.832,4.945v32.09Z" transform="translate(-1420.587 -170.329)" fill="#fff"/>
      <g id="Group_19838" data-name="Group 19838" transform="translate(0 40.275)">
        <path id="Path_9498" data-name="Path 9498" d="M1175.27,417.847v.749h.749v.433h-.749v1.686c0,.388.1.607.392.607a.9.9,0,0,0,.3-.039l.024.433a1.325,1.325,0,0,1-.464.078.716.716,0,0,1-.564-.239,1.3,1.3,0,0,1-.2-.82v-1.705h-.446V418.6h.446v-.581Z" transform="translate(-1174.313 -417.065)" fill="#fff"/>
        <path id="Path_9499" data-name="Path 9499" d="M1188.14,413.563h.523v1.957h.012a1.033,1.033,0,0,1,.374-.407,1.007,1.007,0,0,1,.535-.155c.386,0,1,.258,1,1.331v1.86h-.523v-1.8c0-.5-.172-.924-.666-.924a.77.77,0,0,0-.7.562.783.783,0,0,0-.036.271v1.886h-.523Z" transform="translate(-1185.846 -413.492)" fill="#fff"/>
        <path id="Path_9500" data-name="Path 9500" d="M1207.268,423.706a.959.959,0,0,0,.986,1.085,1.743,1.743,0,0,0,.8-.161l.1.407a2.182,2.182,0,0,1-.963.2,1.406,1.406,0,0,1-1.414-1.583c0-.943.511-1.679,1.349-1.679.945,0,1.188.891,1.188,1.466a1.509,1.509,0,0,1-.018.265Zm1.533-.407c.006-.355-.137-.917-.725-.917-.535,0-.761.523-.8.917Z" transform="translate(-1201.385 -420.509)" fill="#fff"/>
        <path id="Path_9501" data-name="Path 9501" d="M1232.508,424.591a1.392,1.392,0,0,0,.7.22c.374,0,.553-.2.553-.465s-.149-.414-.529-.568c-.523-.207-.767-.51-.767-.885a.92.92,0,0,1,.993-.917,1.252,1.252,0,0,1,.7.194l-.125.413a1.053,1.053,0,0,0-.588-.187.427.427,0,0,0-.475.426c0,.258.166.375.541.536.493.2.755.471.755.937a.946.946,0,0,1-1.07.943,1.538,1.538,0,0,1-.808-.22Z" transform="translate(-1222.751 -420.509)" fill="#fff"/>
        <path id="Path_9502" data-name="Path 9502" d="M1248,415.281a.326.326,0,0,1-.333.349.322.322,0,0,1-.315-.349.334.334,0,0,1,.327-.355A.329.329,0,0,1,1248,415.281Zm-.583,4V416.16h.523v3.126Z" transform="translate(-1235.241 -414.629)" fill="#fff"/>
        <path id="Path_9503" data-name="Path 9503" d="M1257.549,424.707a1.941,1.941,0,0,1-.41,1.434,1.5,1.5,0,0,1-1.052.375,1.741,1.741,0,0,1-.957-.258l.131-.439a1.476,1.476,0,0,0,.844.252c.535,0,.927-.3.927-1.1v-.342h-.012a1,1,0,0,1-.915.523,1.36,1.36,0,0,1-1.224-1.524c0-1.059.636-1.653,1.3-1.653a.95.95,0,0,1,.9.536h.012l.018-.472h.464c-.018.22-.024.478-.024.853Zm-.523-1.434a.809.809,0,0,0-.03-.252.761.761,0,0,0-.731-.607c-.5,0-.856.459-.856,1.182,0,.614.291,1.124.85,1.124a.763.763,0,0,0,.725-.581,1.067,1.067,0,0,0,.042-.3Z" transform="translate(-1241.516 -420.509)" fill="#fff"/>
        <path id="Path_9504" data-name="Path 9504" d="M1275.861,422.886c0-.329-.006-.588-.024-.846h.464l.03.517h.012a1.055,1.055,0,0,1,.951-.581c.4,0,1.016.258,1.016,1.331v1.86h-.523v-1.8c0-.5-.172-.924-.666-.924a.767.767,0,0,0-.7.581.881.881,0,0,0-.036.265v1.88h-.523Z" transform="translate(-1258.997 -420.509)" fill="#fff"/>
        <path id="Path_9505" data-name="Path 9505" d="M1305.013,423.577a1.476,1.476,0,0,1-1.432,1.66,1.441,1.441,0,0,1-1.379-1.609,1.476,1.476,0,0,1,1.426-1.653A1.43,1.43,0,0,1,1305.013,423.577Zm-2.276.032c0,.685.357,1.2.868,1.2s.874-.51.874-1.214c0-.529-.244-1.195-.862-1.195S1302.737,423.021,1302.737,423.609Z" transform="translate(-1280.989 -420.509)" fill="#fff"/>
        <path id="Path_9506" data-name="Path 9506" d="M1321.444,417.792V415.1h-.4v-.433h.4v-.148a1.584,1.584,0,0,1,.333-1.092.957.957,0,0,1,.7-.291,1.1,1.1,0,0,1,.446.09l-.071.439a.709.709,0,0,0-.333-.071c-.446,0-.559.42-.559.9v.168h.7v.433h-.7v2.693Z" transform="translate(-1296.707 -413.135)" fill="#fff"/>
        <path id="Path_9507" data-name="Path 9507" d="M1340.423,423.706a.959.959,0,0,0,.986,1.085,1.744,1.744,0,0,0,.8-.161l.095.407a2.182,2.182,0,0,1-.963.2,1.406,1.406,0,0,1-1.414-1.583c0-.943.511-1.679,1.349-1.679.945,0,1.188.891,1.188,1.466a1.47,1.47,0,0,1-.018.265Zm1.533-.407c.006-.355-.137-.917-.725-.917-.535,0-.761.523-.8.917Z" transform="translate(-1312.453 -420.509)" fill="#fff"/>
        <path id="Path_9508" data-name="Path 9508" d="M1357.357,422.363l.41.672c.113.174.2.329.3.5h.012c.095-.181.19-.342.291-.51l.4-.665h.57l-.981,1.512,1,1.615h-.588l-.428-.7c-.113-.181-.208-.355-.309-.543h-.012c-.095.187-.19.355-.3.543l-.416.7h-.576l1.022-1.6-.975-1.531Z" transform="translate(-1326.469 -420.832)" fill="#fff"/>
        <path id="Path_9509" data-name="Path 9509" d="M1376.108,425.056a1.884,1.884,0,0,1-.826.181,1.432,1.432,0,0,1-1.432-1.6,1.568,1.568,0,0,1,2.27-1.5l-.119.433a1.2,1.2,0,0,0-.606-.149,1.052,1.052,0,0,0-1.016,1.182,1.037,1.037,0,0,0,1,1.169,1.4,1.4,0,0,0,.642-.149Z" transform="translate(-1340.752 -420.509)" fill="#fff"/>
        <path id="Path_9510" data-name="Path 9510" d="M1390.219,423.706a.959.959,0,0,0,.986,1.085,1.743,1.743,0,0,0,.8-.161l.095.407a2.18,2.18,0,0,1-.963.2,1.406,1.406,0,0,1-1.415-1.583c0-.943.511-1.679,1.349-1.679.945,0,1.189.891,1.189,1.466a1.491,1.491,0,0,1-.018.265Zm1.533-.407c.006-.355-.137-.917-.725-.917-.535,0-.761.523-.8.917Z" transform="translate(-1353.989 -420.509)" fill="#fff"/>
        <path id="Path_9511" data-name="Path 9511" d="M1408.921,413.563h.523v4.586h-.523Z" transform="translate(-1370.005 -413.492)" fill="#fff"/>
        <path id="Path_9512" data-name="Path 9512" d="M1417.375,413.563h.523v4.586h-.523Z" transform="translate(-1377.057 -413.492)" fill="#fff"/>
        <path id="Path_9513" data-name="Path 9513" d="M1425.074,423.706a.959.959,0,0,0,.986,1.085,1.743,1.743,0,0,0,.8-.161l.1.407a2.18,2.18,0,0,1-.963.2,1.406,1.406,0,0,1-1.414-1.583c0-.943.511-1.679,1.349-1.679.945,0,1.189.891,1.189,1.466a1.521,1.521,0,0,1-.018.265Zm1.533-.407c.006-.355-.137-.917-.725-.917-.535,0-.761.523-.8.917Z" transform="translate(-1383.063 -420.509)" fill="#fff"/>
        <path id="Path_9514" data-name="Path 9514" d="M1443.658,422.886c0-.329-.006-.588-.024-.846h.464l.03.517h.012a1.054,1.054,0,0,1,.951-.581c.4,0,1.016.258,1.016,1.331v1.86h-.523v-1.8c0-.5-.172-.924-.666-.924a.767.767,0,0,0-.7.581.877.877,0,0,0-.036.265v1.88h-.523Z" transform="translate(-1398.96 -420.509)" fill="#fff"/>
        <path id="Path_9515" data-name="Path 9515" d="M1464.664,425.056a1.883,1.883,0,0,1-.826.181,1.432,1.432,0,0,1-1.432-1.6,1.568,1.568,0,0,1,2.27-1.5l-.119.433a1.2,1.2,0,0,0-.606-.149,1.052,1.052,0,0,0-1.016,1.182,1.037,1.037,0,0,0,1,1.169,1.4,1.4,0,0,0,.642-.149Z" transform="translate(-1414.619 -420.509)" fill="#fff"/>
        <path id="Path_9516" data-name="Path 9516" d="M1478.738,423.706a.959.959,0,0,0,.987,1.085,1.742,1.742,0,0,0,.8-.161l.1.407a2.181,2.181,0,0,1-.963.2,1.406,1.406,0,0,1-1.415-1.583c0-.943.511-1.679,1.349-1.679.945,0,1.189.891,1.189,1.466a1.509,1.509,0,0,1-.018.265Zm1.533-.407c.006-.355-.137-.917-.725-.917-.535,0-.761.523-.8.917Z" transform="translate(-1427.825 -420.509)" fill="#fff"/>
        <path id="Path_9517" data-name="Path 9517" d="M1496.295,437.139a.373.373,0,0,1,.357-.407.365.365,0,0,1,.351.407.357.357,0,1,1-.708,0Z" transform="translate(-1442.886 -432.818)" fill="#fff"/>
        <path id="Path_9518" data-name="Path 9518" d="M1503.71,437.139a.373.373,0,0,1,.357-.407.365.365,0,0,1,.351.407.357.357,0,1,1-.707,0Z" transform="translate(-1449.071 -432.818)" fill="#fff"/>
        <path id="Path_9519" data-name="Path 9519" d="M1511.125,437.139a.373.373,0,0,1,.357-.407.365.365,0,0,1,.351.407.357.357,0,1,1-.707,0Z" transform="translate(-1455.256 -432.818)" fill="#fff"/>
      </g>
    </g>
  </g>
</svg>
